<svg xmlns="http://www.w3.org/2000/svg" width="460" height="460" viewBox="0 0 460 460"><rect width="100%" height="100%" fill="#DDDDDD"/><path fill="#999999" d="M100.28 235.43h13.42V221q0-2.04.28-4.51l-13.7 18.94Zm19.98 0h5.55v4.36q0 .61-.4 1.05-.39.44-1.12.44h-4.03v10.77h-6.56v-10.77H95.1q-.76 0-1.34-.47-.58-.47-.74-1.17l-.79-3.82 20.89-27.9h7.14v27.51Zm36.11-27.48-13.08 16.01-1.53 1.89q1.28-.64 2.76-.99 1.48-.35 3.19-.35 2.5 0 4.87.82 2.36.83 4.16 2.49 1.8 1.66 2.9 4.13 1.09 2.47 1.09 5.77 0 3.08-1.12 5.77-1.13 2.7-3.18 4.72-2.04 2.01-4.92 3.17-2.88 1.16-6.36 1.16-3.54 0-6.35-1.13-2.8-1.13-4.78-3.16-1.99-2.03-3.04-4.88t-1.05-6.33q0-3.11 1.26-6.39 1.27-3.27 3.92-6.81l10.53-14.12q.55-.74 1.6-1.25 1.05-.52 2.42-.52h6.71ZM145 246.38q1.8 0 3.31-.61 1.5-.61 2.59-1.71 1.08-1.1 1.69-2.58.61-1.48.61-3.22 0-1.89-.58-3.4t-1.65-2.56q-1.06-1.05-2.56-1.6-1.49-.55-3.29-.55t-3.27.61q-1.46.61-2.5 1.69-1.03 1.09-1.61 2.57-.58 1.48-.58 3.18 0 1.83.5 3.34.5 1.51 1.5 2.58.99 1.07 2.45 1.66 1.46.6 3.39.6ZM196.6 230q0 5.76-1.23 10.02-1.24 4.25-3.42 7.03-2.18 2.77-5.15 4.13-2.98 1.36-6.42 1.36-3.45 0-6.39-1.36-2.95-1.36-5.11-4.13-2.17-2.78-3.39-7.03-1.22-4.26-1.22-10.02 0-5.8 1.22-10.04 1.22-4.24 3.39-7.01 2.16-2.78 5.11-4.13 2.94-1.36 6.39-1.36 3.44 0 6.42 1.36 2.97 1.35 5.15 4.13 2.18 2.77 3.42 7.01 1.23 4.24 1.23 10.04Zm-7.78 0q0-4.79-.7-7.93-.7-3.14-1.87-5-1.18-1.86-2.7-2.61-1.53-.75-3.17-.75-1.62 0-3.13.75-1.51.75-2.67 2.61-1.16 1.86-1.84 5-.69 3.14-.69 7.93 0 4.79.69 7.93.68 3.14 1.84 5 1.16 1.86 2.67 2.61 1.51.75 3.13.75 1.64 0 3.17-.75 1.52-.75 2.7-2.61 1.17-1.86 1.87-5 .7-3.14.7-7.93Zm56.22 11.95-4 3.94-10.34-10.34-10.43 10.4-4-3.93 10.44-10.47-9.95-9.94 3.97-3.96 9.94 9.94 9.88-9.88 4.03 3.96-9.91 9.91 10.37 10.37Zm26.41-6.52h13.42V221q0-2.04.27-4.51l-13.69 18.94Zm19.98 0h5.55v4.36q0 .61-.4 1.05-.4.44-1.13.44h-4.02v10.77h-6.56v-10.77h-18.61q-.76 0-1.34-.47-.58-.47-.73-1.17l-.79-3.82 20.89-27.9h7.14v27.51Zm36.11-27.48-13.09 16.01-1.52 1.89q1.28-.64 2.76-.99 1.48-.35 3.19-.35 2.5 0 4.86.82 2.36.83 4.16 2.49 1.8 1.66 2.9 4.13 1.1 2.47 1.1 5.77 0 3.08-1.13 5.77-1.13 2.7-3.17 4.72-2.04 2.01-4.93 3.17-2.88 1.16-6.36 1.16-3.53 0-6.34-1.13t-4.79-3.16q-1.98-2.03-3.03-4.88-1.06-2.85-1.06-6.33 0-3.11 1.27-6.39 1.27-3.27 3.92-6.81l10.52-14.12q.55-.74 1.6-1.25 1.06-.52 2.43-.52h6.71Zm-11.38 38.43q1.8 0 3.31-.61t2.59-1.71q1.09-1.1 1.7-2.58.61-1.48.61-3.22 0-1.89-.58-3.4t-1.65-2.56q-1.07-1.05-2.56-1.6-1.5-.55-3.3-.55-1.8 0-3.26.61-1.46.61-2.5 1.69-1.04 1.09-1.62 2.57-.58 1.48-.58 3.18 0 1.83.51 3.34.5 1.51 1.49 2.58t2.46 1.66q1.46.6 3.38.6ZM367.77 230q0 5.76-1.24 10.02-1.23 4.25-3.41 7.03-2.18 2.77-5.16 4.13-2.97 1.36-6.42 1.36-3.44 0-6.39-1.36-2.94-1.36-5.11-4.13-2.16-2.78-3.38-7.03-1.22-4.26-1.22-10.02 0-5.8 1.22-10.04 1.22-4.24 3.38-7.01 2.17-2.78 5.11-4.13 2.95-1.36 6.39-1.36 3.45 0 6.42 1.36 2.98 1.35 5.16 4.13 2.18 2.77 3.41 7.01 1.24 4.24 1.24 10.04Zm-7.78 0q0-4.79-.7-7.93-.7-3.14-1.88-5-1.17-1.86-2.7-2.61-1.52-.75-3.17-.75-1.61 0-3.12.75t-2.67 2.61q-1.16 1.86-1.85 5-.68 3.14-.68 7.93 0 4.79.68 7.93.69 3.14 1.85 5 1.16 1.86 2.67 2.61 1.51.75 3.12.75 1.65 0 3.17-.75 1.53-.75 2.7-2.61 1.18-1.86 1.88-5 .7-3.14.7-7.93Z"/></svg>